<?xml version="1.0" encoding="utf-8"?>
<!-- Generator: Adobe Illustrator 27.9.0, SVG Export Plug-In . SVG Version: 6.00 Build 0)  -->
<svg version="1.1" id="Layer_1" xmlns="http://www.w3.org/2000/svg" xmlns:xlink="http://www.w3.org/1999/xlink" x="0px" y="0px"
	 viewBox="0 0 120 118" style="enable-background:new 0 0 120 118;" xml:space="preserve">
<style type="text/css">
	.st0{fill:#A59E86;}
</style>
<path class="st0" d="M105.2,30.7C103.8,26.6,94.8,1,84.9,0c-8-0.8-14,17.6-15.8,23.6c-2.8-0.1-6.4-0.1-9.1-0.1l0,0
	c-2.7,0-6.3,0-9.1,0.1c-1.1-3.8-2.5-7.5-4.1-11.2C42.9,3.7,39.1-0.4,35.1,0c-10,1-18.9,26.6-20.3,30.6c-0.6,0.8-2.8,3.8-5.3,8.7
	c-4,7.8-6.8,16.2-8.3,24.8c-5,28.1,5.1,45.2,29.9,50.8c8.7,2,18.6,3,28.8,3.1l0,0c10.2-0.1,20.1-1.1,28.8-3.1
	c24.9-5.6,35-22.7,30-50.8C115.2,44.3,106.5,32.5,105.2,30.7z M34.4,84.9c-7,0-12.7-5.7-12.7-12.7c0-7,5.7-12.7,12.7-12.7
	s12.7,5.7,12.7,12.7C47.1,79.1,41.4,84.9,34.4,84.9C34.4,84.9,34.4,84.9,34.4,84.9z M85.5,84.9c-7,0-12.7-5.7-12.7-12.7
	c0-7,5.7-12.7,12.7-12.7c7,0,12.7,5.7,12.7,12.7C98.2,79.1,92.5,84.9,85.5,84.9C85.5,84.9,85.5,84.9,85.5,84.9L85.5,84.9z"/>
<path class="st0" d="M34.4,65c-3.9,0-7.1,3.2-7.1,7.1c0,3.9,3.2,7.1,7.1,7.1s7.1-3.2,7.1-7.1c0,0,0,0,0,0C41.5,68.2,38.3,65,34.4,65
	C34.4,65,34.4,65,34.4,65z"/>
<path class="st0" d="M85.4,65c-3.9,0-7.1,3.2-7.1,7.1c0,3.9,3.2,7.1,7.1,7.1c3.9,0,7.1-3.2,7.1-7.1c0,0,0,0,0,0
	C92.5,68.2,89.4,65,85.4,65L85.4,65z"/>
</svg>
